M48
;DRILL file {KiCad 4.0.6} date Monday, September 25, 2017 'AMt' 01:14:17 AM
;FORMAT={-:-/ absolute / inch / decimal}
FMAT,2
INCH,TZ
T1C0.016
T2C0.032
T3C0.039
T4C0.043
T5C0.047
%
G90
G05
M72
T1
X4.75Y-3.62
X4.755Y-6.14
X4.77Y-5.2
X4.795Y-3.705
X4.795Y-6.17
X4.805Y-5.28
X4.835Y-3.835
X4.835Y-3.88
X4.865Y-4.92
X4.87Y-4.845
X4.895Y-5.61
X4.92Y-6.3
X4.925Y-5.645
X4.965Y-6.26
X5.03Y-5.04
X5.03Y-5.075
X5.05Y-5.15
X5.0517Y-5.2917
X5.08Y-3.715
X5.08Y-5.22
X5.12Y-6.9
X5.125Y-4.735
X5.13Y-3.83
X5.145Y-6.135
X5.15Y-4.935
X5.15Y-5.135
X5.15Y-5.535
X5.15Y-5.735
X5.15Y-5.935
X5.15Y-6.335
X5.15Y-6.535
X5.15Y-6.735
X5.175Y-7.07
X5.185Y-5.245
X5.205Y-4.595
X5.21Y-3.29
X5.21Y-3.465
X5.21Y-3.64
X5.21Y-3.815
X5.21Y-4.165
X5.21Y-4.34
X5.21Y-4.515
X5.215Y-3.965
X5.225Y-7.07
X5.3Y-6.89
X5.35Y-7.07
X5.365Y-4.95
X5.37Y-4.75
X5.37Y-5.15
X5.37Y-5.35
X5.37Y-5.55
X5.37Y-5.95
X5.37Y-6.755
X5.375Y-5.75
X5.375Y-6.155
X5.375Y-6.355
X5.375Y-6.555
X5.3775Y-4.7075
X5.3775Y-4.9075
X5.3775Y-5.1075
X5.3775Y-5.3075
X5.3775Y-5.5075
X5.3775Y-5.7075
X5.3775Y-5.9075
X5.3775Y-6.1075
X5.3775Y-6.3075
X5.3775Y-6.5075
X5.3775Y-6.7075
X5.4Y-7.07
X5.435Y-3.285
X5.435Y-3.46
X5.435Y-3.635
X5.435Y-3.81
X5.435Y-3.985
X5.435Y-4.16
X5.435Y-4.335
X5.435Y-4.51
X5.515Y-2.945
X5.525Y-7.075
X5.535Y-6.83
X5.585Y-7.06
X5.76Y-2.72
X5.82Y-7.075
X5.87Y-6.83
X5.88Y-7.085
X6.Y-7.075
X6.015Y-3.825
X6.015Y-4.
X6.015Y-4.175
X6.015Y-4.525
X6.02Y-3.47
X6.02Y-3.645
X6.02Y-4.35
X6.025Y-3.295
X6.035Y-6.84
X6.06Y-7.085
X6.105Y-4.74
X6.105Y-4.94
X6.105Y-5.14
X6.105Y-5.34
X6.105Y-5.54
X6.105Y-5.74
X6.105Y-5.94
X6.105Y-6.14
X6.105Y-6.34
X6.105Y-6.54
X6.105Y-6.74
X6.135Y-6.495
X6.14Y-4.69
X6.14Y-4.89
X6.14Y-5.09
X6.14Y-5.29
X6.14Y-5.49
X6.14Y-5.7
X6.14Y-5.895
X6.14Y-6.1
X6.14Y-6.3
X6.14Y-6.695
X6.18Y-7.075
X6.215Y-6.84
X6.235Y-7.07
X6.26Y-3.295
X6.26Y-3.47
X6.26Y-3.645
X6.26Y-3.815
X6.26Y-3.99
X6.26Y-4.17
X6.26Y-4.345
X6.26Y-4.52
X6.37Y-4.72
X6.37Y-5.13
X6.37Y-6.33
X6.37Y-6.53
X6.37Y-6.7
X6.375Y-6.125
X6.38Y-4.93
X6.38Y-5.33
X6.38Y-5.53
X6.38Y-5.73
X6.38Y-5.925
X6.39Y-2.89
X6.45Y-3.36
X6.48Y-3.34
X6.49Y-3.09
X6.5Y-3.51
X6.5Y-4.815
X6.53Y-6.31
X6.545Y-4.815
X6.56Y-4.985
X6.575Y-6.31
X6.575Y-6.49
X6.595Y-3.515
X6.65Y-4.96
X6.66Y-6.465
X6.695Y-6.36
T2
X5.63Y-3.3
X5.63Y-3.4
X5.63Y-3.5
X5.63Y-3.6
X5.63Y-3.7
X5.63Y-3.8
X5.63Y-3.9
X5.63Y-4.
X5.63Y-4.1
X5.63Y-4.2
X5.63Y-4.3
X5.63Y-4.4
X5.63Y-4.5
X5.63Y-4.6
X5.63Y-4.7
X5.63Y-4.8
X5.63Y-4.9
X5.63Y-5.
X5.63Y-5.1
X5.63Y-5.2
X5.63Y-5.3
X5.63Y-5.4
X5.63Y-5.5
X5.63Y-5.6
X5.63Y-5.7
X5.63Y-5.8
X5.63Y-5.9
X5.63Y-6.
X5.63Y-6.1
X5.63Y-6.2
X5.63Y-6.3
X5.63Y-6.4
X5.73Y-3.3
X5.73Y-3.4
X5.73Y-3.5
X5.73Y-3.6
X5.73Y-3.7
X5.73Y-3.8
X5.73Y-3.9
X5.73Y-4.
X5.73Y-4.1
X5.73Y-4.2
X5.73Y-4.3
X5.73Y-4.4
X5.73Y-4.5
X5.73Y-4.6
X5.73Y-4.7
X5.73Y-4.8
X5.73Y-4.9
X5.73Y-5.
X5.73Y-5.1
X5.73Y-5.2
X5.73Y-5.3
X5.73Y-5.4
X5.73Y-5.5
X5.73Y-5.6
X5.73Y-5.7
X5.73Y-5.8
X5.73Y-5.9
X5.73Y-6.
X5.73Y-6.1
X5.73Y-6.2
X5.73Y-6.3
X5.73Y-6.4
X5.83Y-3.3
X5.83Y-3.4
X5.83Y-3.5
X5.83Y-3.6
X5.83Y-3.7
X5.83Y-3.8
X5.83Y-3.9
X5.83Y-4.
X5.83Y-4.1
X5.83Y-4.2
X5.83Y-4.3
X5.83Y-4.4
X5.83Y-4.5
X5.83Y-4.6
X5.83Y-4.7
X5.83Y-4.8
X5.83Y-4.9
X5.83Y-5.
X5.83Y-5.1
X5.83Y-5.2
X5.83Y-5.3
X5.83Y-5.4
X5.83Y-5.5
X5.83Y-5.6
X5.83Y-5.7
X5.83Y-5.8
X5.83Y-5.9
X5.83Y-6.
X5.83Y-6.1
X5.83Y-6.2
X5.83Y-6.3
X5.83Y-6.4
T3
X4.825Y-3.125
X4.825Y-3.225
X4.825Y-3.325
X4.825Y-3.425
T4
X4.81Y-2.23
X4.81Y-2.83
X4.91Y-2.23
X4.91Y-2.33
X4.91Y-2.83
X5.01Y-2.23
X5.01Y-2.83
X5.11Y-2.23
X5.11Y-2.33
X5.11Y-2.83
X5.21Y-2.23
X5.21Y-2.33
X5.21Y-2.83
X5.31Y-2.23
X5.31Y-2.33
X5.31Y-2.83
X5.41Y-2.23
X5.41Y-2.43
X5.41Y-2.53
X5.41Y-2.83
X5.51Y-2.23
X5.51Y-2.43
X5.51Y-2.53
X5.51Y-2.83
X5.61Y-2.23
X5.61Y-2.43
X5.61Y-2.53
X5.61Y-2.83
X5.71Y-2.23
X5.71Y-2.43
X5.71Y-2.53
X5.71Y-2.83
X5.81Y-2.23
X5.81Y-2.43
X5.81Y-2.53
X5.81Y-2.83
X5.91Y-2.23
X5.91Y-2.43
X5.91Y-2.53
X5.91Y-2.83
X6.01Y-2.23
X6.01Y-2.43
X6.01Y-2.53
X6.01Y-2.83
X6.11Y-2.23
X6.11Y-2.33
X6.11Y-2.43
X6.11Y-2.53
X6.11Y-2.63
X6.11Y-2.73
X6.11Y-2.83
T5
X5.05Y-3.05
X5.65Y-3.05
T3
X6.415Y-2.4425G85X6.415Y-2.5213
G05
X6.6394Y-2.3638G85X6.5606Y-2.3638
G05
X6.6394Y-2.6G85X6.5606Y-2.6
G05
T0
M30
