G04 #@! TF.FileFunction,Soldermask,Bot*
%FSLAX46Y46*%
G04 Gerber Fmt 4.6, Leading zero omitted, Abs format (unit mm)*
G04 Created by KiCad (PCBNEW 4.0.6) date Monday, September 25, 2017 'AMt' 01:13:48 AM*
%MOMM*%
%LPD*%
G01*
G04 APERTURE LIST*
%ADD10C,0.100000*%
%ADD11R,3.900000X3.900000*%
%ADD12R,2.150000X0.850000*%
%ADD13C,2.000000*%
%ADD14R,2.000000X2.000000*%
%ADD15R,2.100000X2.100000*%
%ADD16O,2.100000X2.100000*%
%ADD17C,2.800000*%
%ADD18O,2.800000X2.800000*%
%ADD19C,1.920000*%
%ADD20R,1.920000X1.920000*%
G04 APERTURE END LIST*
D10*
D11*
X167640000Y-66040000D03*
X167640000Y-60040000D03*
X162940000Y-63040000D03*
D12*
X121114000Y-103793000D03*
X121114000Y-103143000D03*
X121114000Y-102493000D03*
X121114000Y-101843000D03*
X121114000Y-101193000D03*
X121114000Y-100543000D03*
X121114000Y-99893000D03*
X121114000Y-99243000D03*
X121114000Y-98593000D03*
X121114000Y-97943000D03*
X121114000Y-97293000D03*
X121114000Y-96643000D03*
X121114000Y-95993000D03*
X121114000Y-95343000D03*
X128314000Y-95343000D03*
X128314000Y-95993000D03*
X128314000Y-96643000D03*
X128314000Y-97293000D03*
X128314000Y-97943000D03*
X128314000Y-98593000D03*
X128314000Y-99243000D03*
X128314000Y-99893000D03*
X128314000Y-100543000D03*
X128314000Y-101193000D03*
X128314000Y-101843000D03*
X128314000Y-102493000D03*
X128314000Y-103143000D03*
X128314000Y-103793000D03*
D13*
X155194000Y-64262000D03*
X155194000Y-61722000D03*
X155194000Y-59182000D03*
X155194000Y-56642000D03*
X155194000Y-66802000D03*
X155194000Y-69342000D03*
X155194000Y-71882000D03*
X152654000Y-56642000D03*
X150114000Y-56642000D03*
X147574000Y-56642000D03*
X145034000Y-56642000D03*
X142494000Y-56642000D03*
X139954000Y-56642000D03*
X137414000Y-56642000D03*
X134874000Y-56642000D03*
X132334000Y-56642000D03*
X129794000Y-56642000D03*
X127254000Y-56642000D03*
X124714000Y-56642000D03*
X122174000Y-56642000D03*
X124714000Y-59182000D03*
X129794000Y-59182000D03*
X132334000Y-59182000D03*
X134874000Y-59182000D03*
X152654000Y-71882000D03*
X150114000Y-71882000D03*
X147574000Y-71882000D03*
X145034000Y-71882000D03*
X142494000Y-71882000D03*
X139954000Y-71882000D03*
X137414000Y-71882000D03*
X134874000Y-71882000D03*
X132334000Y-71882000D03*
X129794000Y-71882000D03*
X127254000Y-71882000D03*
X124714000Y-71882000D03*
D14*
X122174000Y-71882000D03*
D13*
X137414000Y-64262000D03*
X139954000Y-64262000D03*
X142494000Y-64262000D03*
X145034000Y-64262000D03*
X147574000Y-64262000D03*
X150114000Y-64262000D03*
X152654000Y-64262000D03*
X152654000Y-61722000D03*
X150114000Y-61722000D03*
X147574000Y-61722000D03*
X145034000Y-61722000D03*
X142494000Y-61722000D03*
X139954000Y-61722000D03*
X137414000Y-61722000D03*
D12*
X163405000Y-95030000D03*
X163405000Y-94380000D03*
X163405000Y-93730000D03*
X163405000Y-93080000D03*
X163405000Y-92430000D03*
X163405000Y-91780000D03*
X163405000Y-91130000D03*
X163405000Y-90480000D03*
X163405000Y-89830000D03*
X163405000Y-89180000D03*
X163405000Y-88530000D03*
X163405000Y-87880000D03*
X163405000Y-87230000D03*
X163405000Y-86580000D03*
X170605000Y-86580000D03*
X170605000Y-87230000D03*
X170605000Y-87880000D03*
X170605000Y-88530000D03*
X170605000Y-89180000D03*
X170605000Y-89830000D03*
X170605000Y-90480000D03*
X170605000Y-91130000D03*
X170605000Y-91780000D03*
X170605000Y-92430000D03*
X170605000Y-93080000D03*
X170605000Y-93730000D03*
X170605000Y-94380000D03*
X170605000Y-95030000D03*
X121114000Y-143798000D03*
X121114000Y-143148000D03*
X121114000Y-142498000D03*
X121114000Y-141848000D03*
X121114000Y-141198000D03*
X121114000Y-140548000D03*
X121114000Y-139898000D03*
X121114000Y-139248000D03*
X121114000Y-138598000D03*
X121114000Y-137948000D03*
X121114000Y-137298000D03*
X121114000Y-136648000D03*
X121114000Y-135998000D03*
X121114000Y-135348000D03*
X128314000Y-135348000D03*
X128314000Y-135998000D03*
X128314000Y-136648000D03*
X128314000Y-137298000D03*
X128314000Y-137948000D03*
X128314000Y-138598000D03*
X128314000Y-139248000D03*
X128314000Y-139898000D03*
X128314000Y-140548000D03*
X128314000Y-141198000D03*
X128314000Y-141848000D03*
X128314000Y-142498000D03*
X128314000Y-143148000D03*
X128314000Y-143798000D03*
X121114000Y-166404000D03*
X121114000Y-165754000D03*
X121114000Y-165104000D03*
X121114000Y-164454000D03*
X121114000Y-163804000D03*
X121114000Y-163154000D03*
X121114000Y-162504000D03*
X121114000Y-161854000D03*
X121114000Y-161204000D03*
X121114000Y-160554000D03*
X121114000Y-159904000D03*
X121114000Y-159254000D03*
X121114000Y-158604000D03*
X121114000Y-157954000D03*
X128314000Y-157954000D03*
X128314000Y-158604000D03*
X128314000Y-159254000D03*
X128314000Y-159904000D03*
X128314000Y-160554000D03*
X128314000Y-161204000D03*
X128314000Y-161854000D03*
X128314000Y-162504000D03*
X128314000Y-163154000D03*
X128314000Y-163804000D03*
X128314000Y-164454000D03*
X128314000Y-165104000D03*
X128314000Y-165754000D03*
X128314000Y-166404000D03*
X164802000Y-132495000D03*
X164802000Y-131845000D03*
X164802000Y-131195000D03*
X164802000Y-130545000D03*
X164802000Y-129895000D03*
X164802000Y-129245000D03*
X164802000Y-128595000D03*
X164802000Y-127945000D03*
X164802000Y-127295000D03*
X164802000Y-126645000D03*
X164802000Y-125995000D03*
X164802000Y-125345000D03*
X164802000Y-124695000D03*
X164802000Y-124045000D03*
X172002000Y-124045000D03*
X172002000Y-124695000D03*
X172002000Y-125345000D03*
X172002000Y-125995000D03*
X172002000Y-126645000D03*
X172002000Y-127295000D03*
X172002000Y-127945000D03*
X172002000Y-128595000D03*
X172002000Y-129245000D03*
X172002000Y-129895000D03*
X172002000Y-130545000D03*
X172002000Y-131195000D03*
X172002000Y-131845000D03*
X172002000Y-132495000D03*
X165056000Y-170722000D03*
X165056000Y-170072000D03*
X165056000Y-169422000D03*
X165056000Y-168772000D03*
X165056000Y-168122000D03*
X165056000Y-167472000D03*
X165056000Y-166822000D03*
X165056000Y-166172000D03*
X165056000Y-165522000D03*
X165056000Y-164872000D03*
X165056000Y-164222000D03*
X165056000Y-163572000D03*
X165056000Y-162922000D03*
X165056000Y-162272000D03*
X172256000Y-162272000D03*
X172256000Y-162922000D03*
X172256000Y-163572000D03*
X172256000Y-164222000D03*
X172256000Y-164872000D03*
X172256000Y-165522000D03*
X172256000Y-166172000D03*
X172256000Y-166822000D03*
X172256000Y-167472000D03*
X172256000Y-168122000D03*
X172256000Y-168772000D03*
X172256000Y-169422000D03*
X172256000Y-170072000D03*
X172256000Y-170722000D03*
D15*
X122555000Y-79375000D03*
D16*
X122555000Y-81915000D03*
X122555000Y-84455000D03*
X122555000Y-86995000D03*
D17*
X128270000Y-77470000D03*
D18*
X143510000Y-77470000D03*
D19*
X148082000Y-88900000D03*
X148082000Y-91440000D03*
X148082000Y-93980000D03*
X148082000Y-96520000D03*
X148082000Y-99060000D03*
X148082000Y-101600000D03*
X148082000Y-104140000D03*
X148082000Y-106680000D03*
X148082000Y-109220000D03*
X148082000Y-111760000D03*
X148082000Y-114300000D03*
X148082000Y-116840000D03*
X148082000Y-119380000D03*
X148082000Y-121920000D03*
X148082000Y-124460000D03*
X148082000Y-127000000D03*
X148082000Y-129540000D03*
X148082000Y-132080000D03*
X148082000Y-134620000D03*
X148082000Y-137160000D03*
X148082000Y-139700000D03*
X148082000Y-142240000D03*
X148082000Y-144780000D03*
X148082000Y-147320000D03*
X148082000Y-149860000D03*
X148082000Y-152400000D03*
X148082000Y-154940000D03*
X148082000Y-157480000D03*
X148082000Y-160020000D03*
X148082000Y-162560000D03*
X148082000Y-86360000D03*
D20*
X148082000Y-83820000D03*
D19*
X145542000Y-83820000D03*
X145542000Y-86360000D03*
X145542000Y-88900000D03*
X145542000Y-91440000D03*
X145542000Y-93980000D03*
X145542000Y-96520000D03*
X145542000Y-99060000D03*
X145542000Y-101600000D03*
X145542000Y-104140000D03*
X145542000Y-106680000D03*
X145542000Y-109220000D03*
X145542000Y-111760000D03*
X145542000Y-114300000D03*
X145542000Y-116840000D03*
X145542000Y-119380000D03*
X145542000Y-121920000D03*
X145542000Y-124460000D03*
X145542000Y-127000000D03*
X145542000Y-129540000D03*
X145542000Y-132080000D03*
X145542000Y-134620000D03*
X145542000Y-137160000D03*
X145542000Y-139700000D03*
X145542000Y-142240000D03*
X145542000Y-144780000D03*
X145542000Y-147320000D03*
X145542000Y-149860000D03*
X145542000Y-152400000D03*
X145542000Y-154940000D03*
X145542000Y-157480000D03*
X145542000Y-160020000D03*
X145542000Y-162560000D03*
X143002000Y-83820000D03*
X143002000Y-86360000D03*
X143002000Y-88900000D03*
X143002000Y-91440000D03*
X143002000Y-93980000D03*
X143002000Y-96520000D03*
X143002000Y-99060000D03*
X143002000Y-101600000D03*
X143002000Y-104140000D03*
X143002000Y-106680000D03*
X143002000Y-109220000D03*
X143002000Y-111760000D03*
X143002000Y-114300000D03*
X143002000Y-116840000D03*
X143002000Y-119380000D03*
X143002000Y-121920000D03*
X143002000Y-124460000D03*
X143002000Y-127000000D03*
X143002000Y-129540000D03*
X143002000Y-132080000D03*
X143002000Y-134620000D03*
X143002000Y-137160000D03*
X143002000Y-139700000D03*
X143002000Y-142240000D03*
X143002000Y-144780000D03*
X143002000Y-147320000D03*
X143002000Y-149860000D03*
X143002000Y-152400000D03*
X143002000Y-154940000D03*
X143002000Y-157480000D03*
X143002000Y-160020000D03*
X143002000Y-162560000D03*
M02*
