G04 #@! TF.FileFunction,Legend,Bot*
%FSLAX46Y46*%
G04 Gerber Fmt 4.6, Leading zero omitted, Abs format (unit mm)*
G04 Created by KiCad (PCBNEW 4.0.6) date Monday, September 25, 2017 'AMt' 01:13:48 AM*
%MOMM*%
%LPD*%
G01*
G04 APERTURE LIST*
%ADD10C,0.100000*%
%ADD11C,0.300000*%
%ADD12C,0.150000*%
G04 APERTURE END LIST*
D10*
D11*
X161317143Y-76445000D02*
X160602857Y-76445000D01*
X161460000Y-76873571D02*
X160960000Y-75373571D01*
X160460000Y-76873571D01*
X159960000Y-75373571D02*
X159960000Y-76587857D01*
X159888572Y-76730714D01*
X159817143Y-76802143D01*
X159674286Y-76873571D01*
X159388572Y-76873571D01*
X159245714Y-76802143D01*
X159174286Y-76730714D01*
X159102857Y-76587857D01*
X159102857Y-75373571D01*
X157602857Y-75445000D02*
X157745714Y-75373571D01*
X157960000Y-75373571D01*
X158174285Y-75445000D01*
X158317143Y-75587857D01*
X158388571Y-75730714D01*
X158460000Y-76016429D01*
X158460000Y-76230714D01*
X158388571Y-76516429D01*
X158317143Y-76659286D01*
X158174285Y-76802143D01*
X157960000Y-76873571D01*
X157817143Y-76873571D01*
X157602857Y-76802143D01*
X157531428Y-76730714D01*
X157531428Y-76230714D01*
X157817143Y-76230714D01*
X156888571Y-75373571D02*
X156888571Y-76587857D01*
X156817143Y-76730714D01*
X156745714Y-76802143D01*
X156602857Y-76873571D01*
X156317143Y-76873571D01*
X156174285Y-76802143D01*
X156102857Y-76730714D01*
X156031428Y-76587857D01*
X156031428Y-75373571D01*
X155388571Y-76802143D02*
X155174285Y-76873571D01*
X154817142Y-76873571D01*
X154674285Y-76802143D01*
X154602856Y-76730714D01*
X154531428Y-76587857D01*
X154531428Y-76445000D01*
X154602856Y-76302143D01*
X154674285Y-76230714D01*
X154817142Y-76159286D01*
X155102856Y-76087857D01*
X155245714Y-76016429D01*
X155317142Y-75945000D01*
X155388571Y-75802143D01*
X155388571Y-75659286D01*
X155317142Y-75516429D01*
X155245714Y-75445000D01*
X155102856Y-75373571D01*
X154745714Y-75373571D01*
X154531428Y-75445000D01*
X154102857Y-75373571D02*
X153245714Y-75373571D01*
X153674285Y-76873571D02*
X153674285Y-75373571D01*
X151817143Y-75373571D02*
X150960000Y-75373571D01*
X151388571Y-76873571D02*
X151388571Y-75373571D01*
X162138570Y-78066429D02*
X162067141Y-77995000D01*
X161924284Y-77923571D01*
X161567141Y-77923571D01*
X161424284Y-77995000D01*
X161352855Y-78066429D01*
X161281427Y-78209286D01*
X161281427Y-78352143D01*
X161352855Y-78566429D01*
X162209998Y-79423571D01*
X161281427Y-79423571D01*
X160352856Y-77923571D02*
X160209999Y-77923571D01*
X160067142Y-77995000D01*
X159995713Y-78066429D01*
X159924284Y-78209286D01*
X159852856Y-78495000D01*
X159852856Y-78852143D01*
X159924284Y-79137857D01*
X159995713Y-79280714D01*
X160067142Y-79352143D01*
X160209999Y-79423571D01*
X160352856Y-79423571D01*
X160495713Y-79352143D01*
X160567142Y-79280714D01*
X160638570Y-79137857D01*
X160709999Y-78852143D01*
X160709999Y-78495000D01*
X160638570Y-78209286D01*
X160567142Y-78066429D01*
X160495713Y-77995000D01*
X160352856Y-77923571D01*
X158424285Y-79423571D02*
X159281428Y-79423571D01*
X158852856Y-79423571D02*
X158852856Y-77923571D01*
X158995713Y-78137857D01*
X159138571Y-78280714D01*
X159281428Y-78352143D01*
X157924285Y-77923571D02*
X156924285Y-77923571D01*
X157567142Y-79423571D01*
X154352857Y-79423571D02*
X154852857Y-78709286D01*
X155210000Y-79423571D02*
X155210000Y-77923571D01*
X154638572Y-77923571D01*
X154495714Y-77995000D01*
X154424286Y-78066429D01*
X154352857Y-78209286D01*
X154352857Y-78423571D01*
X154424286Y-78566429D01*
X154495714Y-78637857D01*
X154638572Y-78709286D01*
X155210000Y-78709286D01*
X153710000Y-78637857D02*
X153210000Y-78637857D01*
X152995714Y-79423571D02*
X153710000Y-79423571D01*
X153710000Y-77923571D01*
X152995714Y-77923571D01*
X152567143Y-77923571D02*
X152067143Y-79423571D01*
X151567143Y-77923571D01*
X150281429Y-79423571D02*
X151138572Y-79423571D01*
X150710000Y-79423571D02*
X150710000Y-77923571D01*
X150852857Y-78137857D01*
X150995715Y-78280714D01*
X151138572Y-78352143D01*
D12*
X121839000Y-104893000D02*
X121839000Y-104318000D01*
X127589000Y-104893000D02*
X127589000Y-104243000D01*
X127589000Y-94243000D02*
X127589000Y-94893000D01*
X121839000Y-94243000D02*
X121839000Y-94893000D01*
X121839000Y-104893000D02*
X127589000Y-104893000D01*
X121839000Y-94243000D02*
X127589000Y-94243000D01*
X121839000Y-104318000D02*
X120239000Y-104318000D01*
X164130000Y-96130000D02*
X164130000Y-95555000D01*
X169880000Y-96130000D02*
X169880000Y-95480000D01*
X169880000Y-85480000D02*
X169880000Y-86130000D01*
X164130000Y-85480000D02*
X164130000Y-86130000D01*
X164130000Y-96130000D02*
X169880000Y-96130000D01*
X164130000Y-85480000D02*
X169880000Y-85480000D01*
X164130000Y-95555000D02*
X162530000Y-95555000D01*
X121839000Y-144898000D02*
X121839000Y-144323000D01*
X127589000Y-144898000D02*
X127589000Y-144248000D01*
X127589000Y-134248000D02*
X127589000Y-134898000D01*
X121839000Y-134248000D02*
X121839000Y-134898000D01*
X121839000Y-144898000D02*
X127589000Y-144898000D01*
X121839000Y-134248000D02*
X127589000Y-134248000D01*
X121839000Y-144323000D02*
X120239000Y-144323000D01*
X121839000Y-167504000D02*
X121839000Y-166929000D01*
X127589000Y-167504000D02*
X127589000Y-166854000D01*
X127589000Y-156854000D02*
X127589000Y-157504000D01*
X121839000Y-156854000D02*
X121839000Y-157504000D01*
X121839000Y-167504000D02*
X127589000Y-167504000D01*
X121839000Y-156854000D02*
X127589000Y-156854000D01*
X121839000Y-166929000D02*
X120239000Y-166929000D01*
X165527000Y-133595000D02*
X165527000Y-133020000D01*
X171277000Y-133595000D02*
X171277000Y-132945000D01*
X171277000Y-122945000D02*
X171277000Y-123595000D01*
X165527000Y-122945000D02*
X165527000Y-123595000D01*
X165527000Y-133595000D02*
X171277000Y-133595000D01*
X165527000Y-122945000D02*
X171277000Y-122945000D01*
X165527000Y-133020000D02*
X163927000Y-133020000D01*
X165781000Y-171822000D02*
X165781000Y-171247000D01*
X171531000Y-171822000D02*
X171531000Y-171172000D01*
X171531000Y-161172000D02*
X171531000Y-161822000D01*
X165781000Y-161172000D02*
X165781000Y-161822000D01*
X165781000Y-171822000D02*
X171531000Y-171822000D01*
X165781000Y-161172000D02*
X171531000Y-161172000D01*
X165781000Y-171247000D02*
X164181000Y-171247000D01*
X125475905Y-105270381D02*
X125475905Y-106079905D01*
X125428286Y-106175143D01*
X125380667Y-106222762D01*
X125285429Y-106270381D01*
X125094952Y-106270381D01*
X124999714Y-106222762D01*
X124952095Y-106175143D01*
X124904476Y-106079905D01*
X124904476Y-105270381D01*
X123904476Y-106270381D02*
X124475905Y-106270381D01*
X124190191Y-106270381D02*
X124190191Y-105270381D01*
X124285429Y-105413238D01*
X124380667Y-105508476D01*
X124475905Y-105556095D01*
X167766905Y-96507381D02*
X167766905Y-97316905D01*
X167719286Y-97412143D01*
X167671667Y-97459762D01*
X167576429Y-97507381D01*
X167385952Y-97507381D01*
X167290714Y-97459762D01*
X167243095Y-97412143D01*
X167195476Y-97316905D01*
X167195476Y-96507381D01*
X166814524Y-96507381D02*
X166195476Y-96507381D01*
X166528810Y-96888333D01*
X166385952Y-96888333D01*
X166290714Y-96935952D01*
X166243095Y-96983571D01*
X166195476Y-97078810D01*
X166195476Y-97316905D01*
X166243095Y-97412143D01*
X166290714Y-97459762D01*
X166385952Y-97507381D01*
X166671667Y-97507381D01*
X166766905Y-97459762D01*
X166814524Y-97412143D01*
X125475905Y-145275381D02*
X125475905Y-146084905D01*
X125428286Y-146180143D01*
X125380667Y-146227762D01*
X125285429Y-146275381D01*
X125094952Y-146275381D01*
X124999714Y-146227762D01*
X124952095Y-146180143D01*
X124904476Y-146084905D01*
X124904476Y-145275381D01*
X123952095Y-145275381D02*
X124428286Y-145275381D01*
X124475905Y-145751571D01*
X124428286Y-145703952D01*
X124333048Y-145656333D01*
X124094952Y-145656333D01*
X123999714Y-145703952D01*
X123952095Y-145751571D01*
X123904476Y-145846810D01*
X123904476Y-146084905D01*
X123952095Y-146180143D01*
X123999714Y-146227762D01*
X124094952Y-146275381D01*
X124333048Y-146275381D01*
X124428286Y-146227762D01*
X124475905Y-146180143D01*
X125475905Y-167881381D02*
X125475905Y-168690905D01*
X125428286Y-168786143D01*
X125380667Y-168833762D01*
X125285429Y-168881381D01*
X125094952Y-168881381D01*
X124999714Y-168833762D01*
X124952095Y-168786143D01*
X124904476Y-168690905D01*
X124904476Y-167881381D01*
X124523524Y-167881381D02*
X123856857Y-167881381D01*
X124285429Y-168881381D01*
X169163905Y-133972381D02*
X169163905Y-134781905D01*
X169116286Y-134877143D01*
X169068667Y-134924762D01*
X168973429Y-134972381D01*
X168782952Y-134972381D01*
X168687714Y-134924762D01*
X168640095Y-134877143D01*
X168592476Y-134781905D01*
X168592476Y-133972381D01*
X167973429Y-134400952D02*
X168068667Y-134353333D01*
X168116286Y-134305714D01*
X168163905Y-134210476D01*
X168163905Y-134162857D01*
X168116286Y-134067619D01*
X168068667Y-134020000D01*
X167973429Y-133972381D01*
X167782952Y-133972381D01*
X167687714Y-134020000D01*
X167640095Y-134067619D01*
X167592476Y-134162857D01*
X167592476Y-134210476D01*
X167640095Y-134305714D01*
X167687714Y-134353333D01*
X167782952Y-134400952D01*
X167973429Y-134400952D01*
X168068667Y-134448571D01*
X168116286Y-134496190D01*
X168163905Y-134591429D01*
X168163905Y-134781905D01*
X168116286Y-134877143D01*
X168068667Y-134924762D01*
X167973429Y-134972381D01*
X167782952Y-134972381D01*
X167687714Y-134924762D01*
X167640095Y-134877143D01*
X167592476Y-134781905D01*
X167592476Y-134591429D01*
X167640095Y-134496190D01*
X167687714Y-134448571D01*
X167782952Y-134400952D01*
X169417905Y-172199381D02*
X169417905Y-173008905D01*
X169370286Y-173104143D01*
X169322667Y-173151762D01*
X169227429Y-173199381D01*
X169036952Y-173199381D01*
X168941714Y-173151762D01*
X168894095Y-173104143D01*
X168846476Y-173008905D01*
X168846476Y-172199381D01*
X168322667Y-173199381D02*
X168132191Y-173199381D01*
X168036952Y-173151762D01*
X167989333Y-173104143D01*
X167894095Y-172961286D01*
X167846476Y-172770810D01*
X167846476Y-172389857D01*
X167894095Y-172294619D01*
X167941714Y-172247000D01*
X168036952Y-172199381D01*
X168227429Y-172199381D01*
X168322667Y-172247000D01*
X168370286Y-172294619D01*
X168417905Y-172389857D01*
X168417905Y-172627952D01*
X168370286Y-172723190D01*
X168322667Y-172770810D01*
X168227429Y-172818429D01*
X168036952Y-172818429D01*
X167941714Y-172770810D01*
X167894095Y-172723190D01*
X167846476Y-172627952D01*
M02*
